<svg width="193" height="75" viewBox="0 0 193 75" fill="none" xmlns="http://www.w3.org/2000/svg">
<path fill-rule="evenodd" clip-rule="evenodd" d="M27.5263 30.3191L25.1533 48.9893L22.9386 30.1595L7.59351 27.9255L22.7804 25.5319L25.1533 9.25528L27.6845 25.3723L53.1542 27.9255L27.5263 30.3191ZM37.1763 1.5957C17.5599 1.5957 1.58203 17.7127 1.58203 37.5C1.58203 57.2872 17.5599 73.4042 37.1763 73.4042C56.7927 73.4042 72.7706 57.2872 72.7706 37.5C72.7706 17.7127 56.7927 1.5957 37.1763 1.5957Z" fill="#EB2027"/>
<path d="M97.6075 32.2341C96.342 32.2341 95.0764 32.0745 93.969 31.5958C92.8616 31.1171 91.9125 30.4788 90.9633 29.6809C90.1723 28.883 89.5395 27.9256 89.0649 26.649C88.5903 25.532 88.4321 24.2554 88.4321 22.8192C88.4321 21.383 88.5903 20.1064 89.0649 18.9894C89.5395 17.8724 90.1723 16.9149 90.9633 15.9575C91.7543 15.1596 92.8616 14.5213 93.969 14.0426C95.0764 13.5639 96.342 13.4043 97.6075 13.4043C98.3985 13.4043 99.1895 13.5639 99.8223 13.7234C100.455 13.883 101.088 14.2022 101.721 14.5213C102.353 14.8405 102.828 15.1596 103.303 15.6383C103.777 16.1171 104.252 16.5958 104.568 17.0745L102.67 18.1915C102.195 17.3937 101.404 16.7554 100.613 16.2766C99.8223 15.7979 98.8731 15.4788 97.7657 15.4788C96.8166 15.4788 95.8674 15.6383 95.0764 15.9575C94.2854 16.2766 93.4944 16.7554 92.8616 17.5532C92.2288 18.1915 91.7543 18.9894 91.4379 19.9469C91.1215 20.9043 90.9633 21.8617 90.9633 22.9788C90.9633 24.0958 91.1215 25.0532 91.4379 26.0107C91.7543 26.9681 92.2288 27.766 92.8616 28.4043C93.4944 29.0426 94.2854 29.5213 95.0764 30C95.8674 30.3192 96.8166 30.4788 97.7657 30.4788C98.7149 30.4788 99.6641 30.1596 100.613 29.6809C101.562 29.2022 102.195 28.5639 102.67 27.766L104.41 28.7234C103.619 29.6809 102.67 30.6383 101.562 31.2766C100.613 31.9149 99.1895 32.2341 97.6075 32.2341ZM107.732 31.9149V18.8298H109.789V28.883L116.591 18.8298H118.648V31.9149H116.591V21.7022L109.63 31.9149H107.732ZM128.772 32.2341C127.823 32.2341 126.874 32.0745 126.083 31.7554C125.292 31.4362 124.659 30.9575 124.026 30.3192C123.552 29.6809 123.077 29.0426 122.761 28.0852C122.444 27.2873 122.286 26.3298 122.286 25.3724C122.286 24.4149 122.444 23.4575 122.761 22.6596C123.077 21.8617 123.552 21.0639 124.026 20.4256C124.659 19.7873 125.292 19.3086 126.083 18.9894C126.874 18.6703 127.823 18.5107 128.772 18.5107C130.038 18.5107 130.987 18.6703 131.62 19.149C132.411 19.6277 133.044 20.1064 133.518 20.7447L132.094 22.0213C131.62 21.383 131.145 21.0639 130.671 20.7447C130.196 20.4256 129.563 20.266 128.772 20.266C128.14 20.266 127.507 20.4256 126.874 20.5851C126.399 20.9043 125.925 21.2234 125.45 21.7022C124.976 22.1809 124.817 22.6596 124.501 23.2979C124.343 23.9362 124.185 24.5745 124.185 25.3724C124.185 26.1703 124.343 26.8086 124.501 27.4469C124.659 28.0852 124.976 28.5639 125.45 29.0426C125.925 29.5213 126.241 29.8405 126.874 30.1596C127.349 30.4788 128.14 30.4788 128.772 30.4788C130.196 30.4788 131.303 29.8405 132.094 28.7234L133.518 30C133.044 30.6383 132.411 31.1171 131.62 31.5958C130.987 32.0745 130.038 32.2341 128.772 32.2341ZM139.371 31.9149V20.5851H135.575V18.8298H145.067V20.5851H141.27V31.9149H139.371ZM154.242 32.2341C153.293 32.2341 152.344 32.0745 151.553 31.7554C150.762 31.4362 149.971 30.9575 149.496 30.3192C148.863 29.6809 148.389 29.0426 148.072 28.0852C147.756 27.2873 147.598 26.3298 147.598 25.2128C147.598 24.2554 147.756 23.4575 148.072 22.5C148.389 21.7022 148.863 20.9043 149.338 20.266C149.971 19.6277 150.603 19.149 151.394 18.8298C152.185 18.5107 152.976 18.3511 153.926 18.3511C154.875 18.3511 155.824 18.5107 156.615 18.8298C157.406 19.149 158.039 19.6277 158.513 20.266C158.988 20.9043 159.462 21.7022 159.779 22.5C160.095 23.2979 160.253 24.2554 160.253 25.2128V25.6915H149.812C149.812 26.3298 149.971 26.9681 150.129 27.4469C150.445 27.9256 150.603 28.4043 151.078 28.883C151.553 29.2022 152.027 29.6809 152.502 29.8405C152.976 30 153.609 30.1596 154.4 30.1596C155.191 30.1596 155.824 30 156.615 29.6809C157.248 29.3617 157.88 29.0426 158.513 28.4043L159.462 29.6809C158.83 30.3192 158.039 30.7979 157.248 31.1171C156.299 32.0745 155.349 32.2341 154.242 32.2341ZM158.197 24.5745C158.197 24.0958 158.039 23.6171 157.88 23.1383C157.722 22.6596 157.406 22.1809 157.09 21.7022C156.773 21.2234 156.299 20.9043 155.824 20.5851C155.349 20.266 154.717 20.1064 153.926 20.1064C153.293 20.1064 152.66 20.266 152.027 20.5851C151.553 20.9043 151.078 21.2234 150.762 21.5426C150.445 22.0213 150.129 22.5 149.971 22.9788C149.812 23.4575 149.654 23.9362 149.654 24.5745H158.197ZM175.282 31.9149V21.7022L171.011 31.9149H170.22L165.949 21.7022V31.9149H163.892V18.8298H166.581L170.536 28.5639L174.491 18.8298H177.18V31.9149H175.282ZM189.994 31.9149V30.4788C188.887 31.7554 187.463 32.2341 185.723 32.2341C185.249 32.2341 184.616 32.0745 184.141 31.9149C183.667 31.7554 183.192 31.4362 182.717 31.1171C182.243 30.7979 181.926 30.3192 181.61 29.6809C181.294 29.2022 181.135 28.5639 181.135 27.766C181.135 26.9681 181.294 26.3298 181.61 25.8511C181.926 25.3724 182.243 24.8937 182.717 24.4149C183.192 23.9362 183.667 23.7766 184.141 23.6171C184.616 23.4575 185.249 23.2979 185.723 23.2979C186.672 23.2979 187.463 23.4575 188.096 23.7766C188.729 24.0958 189.52 24.5745 189.994 25.2128V22.8192C189.994 21.8617 189.678 21.2234 189.045 20.7447C188.412 20.266 187.621 19.9469 186.672 19.9469C185.09 19.9469 183.825 20.5851 182.717 21.7022L181.768 20.266C183.192 18.8298 184.932 18.032 186.989 18.032C187.621 18.032 188.254 18.1915 188.887 18.3511C189.52 18.5107 189.994 18.8298 190.469 19.149C190.944 19.4681 191.26 19.9469 191.576 20.5851C191.893 21.2234 191.893 21.8617 191.893 22.6596V31.9149H189.994ZM186.356 30.7979C187.147 30.7979 187.78 30.6383 188.412 30.3192C189.045 30 189.52 29.6809 189.994 29.0426V26.649C189.678 26.1703 189.045 25.6915 188.412 25.3724C187.78 25.0532 187.147 24.8937 186.356 24.8937C185.407 24.8937 184.616 25.2128 183.983 25.6915C183.35 26.1703 183.034 26.9681 183.034 27.766C183.034 28.5639 183.35 29.3617 183.983 29.8405C184.616 30.4788 185.407 30.7979 186.356 30.7979Z" fill="black"/>
<path d="M92.5453 60.6383V45.9574H101.404V42.6064H88.7485V60.6383H92.5453ZM100.771 60.9574C104.094 60.9574 105.676 58.8829 106.308 54.2553L106.783 50.5851H110.738V60.6383H114.218V47.5532H103.777L102.986 53.9361C102.512 57.1276 102.037 58.2446 100.93 58.2446V60.9574H100.771ZM129.247 60.6383V52.1808C129.247 48.351 126.558 47.234 123.552 47.234C121.495 47.234 119.439 47.8723 117.857 49.3085L119.122 51.5425C120.23 50.5851 121.495 49.9468 122.919 49.9468C124.659 49.9468 125.767 50.7446 125.767 52.1808V53.9361C124.976 52.9787 123.394 52.3404 121.653 52.3404C119.597 52.3404 117.066 53.4574 117.066 56.6489C117.066 59.5212 119.597 60.9574 121.653 60.9574C123.394 60.9574 124.817 60.3191 125.767 59.2021V60.6383H129.247ZM123.077 58.5638C121.653 58.5638 120.704 57.9255 120.704 56.6489C120.704 55.3723 121.812 54.734 123.077 54.734C124.185 54.734 125.292 55.0532 125.767 55.851V57.4468C125.292 58.2446 124.185 58.5638 123.077 58.5638ZM141.744 60.6383C144.434 60.6383 145.699 59.0425 145.699 57.1276C145.699 55.5319 144.592 54.2553 143.168 53.9361C144.434 53.617 145.383 52.5 145.383 50.9042C145.383 49.1489 144.117 47.5532 141.428 47.5532H133.202V60.6383H141.744ZM140.795 57.7659H136.524V55.3723H140.795C141.586 55.3723 142.061 56.0106 142.061 56.6489C142.219 57.2872 141.744 57.7659 140.795 57.7659ZM140.795 52.5H136.682V50.2659H140.795C141.586 50.2659 142.061 50.7446 142.061 51.3829C141.903 52.0212 141.428 52.5 140.795 52.5ZM155.508 57.9255C153.451 57.9255 152.185 56.1702 152.185 54.0957C152.185 52.1808 153.451 50.4255 155.508 50.4255C157.564 50.4255 158.83 52.1808 158.83 54.0957C158.83 56.1702 157.722 57.9255 155.508 57.9255ZM155.508 60.9574C159.779 60.9574 162.31 57.7659 162.31 54.0957C162.31 50.4255 159.937 47.234 156.14 47.234C154.4 47.234 152.818 48.0319 151.711 49.3085C152.027 47.7127 153.293 46.4361 156.457 45.9574C158.513 45.6383 161.835 45 161.835 42.4468H158.355C158.355 42.9255 157.564 43.2446 155.349 43.5638C150.92 44.2021 148.547 47.0744 148.547 53.4574C148.705 57.7659 151.236 60.9574 155.508 60.9574ZM165.158 65.7446C165.632 65.9042 166.423 65.9042 166.898 65.9042C169.112 65.9042 170.853 65.2659 171.802 62.7127L177.971 47.3936H174.333L171.011 56.4893L167.689 47.3936H164.05L169.271 60.6383L168.796 61.7553C168.48 62.3936 167.847 62.7127 167.056 62.7127C166.74 62.7127 166.265 62.5532 165.949 62.5532L165.158 65.7446ZM191.735 60.6383L187.147 53.9361L191.576 47.5532H187.78L185.09 51.5425L182.401 47.5532H178.604L182.876 53.9361L178.288 60.6383H182.085L185.09 56.1702L188.096 60.6383H191.735Z" fill="black"/>
</svg>
