<svg width="17" height="17" viewBox="0 0 17 17" fill="none" xmlns="http://www.w3.org/2000/svg">
<path fill-rule="evenodd" clip-rule="evenodd" d="M0.28418 0.607422C0.468226 0.429504 0.71417 0.330078 0.970154 0.330078C1.22614 0.330078 1.47214 0.429504 1.65619 0.607422L15.7281 14.3774C15.8181 14.4654 15.8895 14.5704 15.9383 14.6863C15.9871 14.8022 16.0122 14.9267 16.0122 15.0525C16.0122 15.1783 15.9871 15.3027 15.9383 15.4186C15.8895 15.5345 15.8181 15.6395 15.7281 15.7274C15.5439 15.9054 15.2978 16.0049 15.0417 16.0049C14.7855 16.0049 14.5394 15.9054 14.3552 15.7274L0.28418 1.9574C0.194255 1.86948 0.122817 1.7646 0.0740356 1.64868C0.0252541 1.53277 0.00012207 1.40823 0.00012207 1.28247C0.00012207 1.15671 0.0252541 1.03217 0.0740356 0.91626C0.122817 0.800345 0.194255 0.695339 0.28418 0.607422ZM0.28418 14.0475L14.3552 0.277466C14.5394 0.0994837 14.7855 0 15.0417 0C15.2978 0 15.5439 0.0994837 15.7281 0.277466C15.818 0.364376 15.8895 0.468514 15.9384 0.583618C15.9872 0.698722 16.0123 0.822483 16.0123 0.94751C16.0123 1.07254 15.9872 1.19618 15.9384 1.31128C15.8895 1.42638 15.818 1.53052 15.7281 1.61743L1.65619 15.3875C1.47214 15.5654 1.22614 15.6648 0.970154 15.6648C0.71417 15.6648 0.468226 15.5654 0.28418 15.3875C0.1943 15.3005 0.122789 15.1964 0.0739746 15.0813C0.0251604 14.9662 0 14.8424 0 14.7174C0 14.5924 0.0251604 14.4686 0.0739746 14.3535C0.122789 14.2384 0.1943 14.1344 0.28418 14.0475Z" fill="#E22A3D"/>
</svg>
