<svg width="34" height="36" viewBox="0 0 34 36" fill="none" xmlns="http://www.w3.org/2000/svg">
<g clip-path="url(#clip0)">
<path d="M14.0155 -0.00152588C13.5673 0.165714 13.0977 0.158443 12.6353 0.252968C9.5832 0.900112 7.04334 2.44162 4.92323 4.74661C2.9383 6.90617 1.60078 9.43657 0.789734 12.2724C0.17789 14.4028 -0.0640012 16.5842 0.0142578 18.8019C0.142318 22.154 0.981824 25.3097 2.66795 28.1819C4.63866 31.5339 7.34927 34.028 11.0346 35.3004C12.6709 35.8676 14.3641 36.0276 16.0787 35.9912C17.1459 35.9694 18.213 36.0057 19.2802 35.9694C22.005 35.8676 24.488 34.9878 26.6935 33.359C30.457 30.5741 32.6127 26.7494 33.5803 22.1613C33.9146 20.5834 34.0569 18.9765 33.9858 17.3622C33.7581 12.076 31.9937 7.45879 28.1377 3.81588C25.8611 1.66359 23.1789 0.376579 20.0699 0.0711861C20.013 0.0639153 19.949 0.0639153 19.9205 -0.00152588C17.9498 -0.00152588 15.9791 -0.00152588 14.0155 -0.00152588ZM4.88055 17.4349C4.93746 15.2536 5.32876 13.1376 6.11135 11.1017C7.43464 7.64784 9.54052 4.84113 12.7065 2.95061C15.0187 1.57634 17.5229 1.00191 20.1837 1.32912C23.5347 1.74358 26.2808 3.36507 28.4863 5.93182C31.2823 9.18207 32.5914 13.0431 32.7763 17.3259C32.8759 19.66 32.5487 21.9359 31.8017 24.1463C30.6135 27.6729 28.6286 30.6032 25.5409 32.6682C23.0864 34.3043 20.383 35.0241 17.4589 34.6678C13.9159 34.2316 11.0915 32.4501 8.82907 29.6797C7.1216 27.5929 6.01175 25.1861 5.39279 22.5466C4.99438 20.8597 4.83075 19.1582 4.88055 17.4349ZM4.13353 9.94556C3.81338 9.94556 3.49323 9.94556 3.17308 9.94556C3.00233 9.94556 2.95964 9.88012 3.0379 9.72742C3.18019 9.45111 3.31537 9.16753 3.45766 8.89122C3.5288 8.75307 3.63552 8.67308 3.79915 8.68036C4.40388 8.68036 5.00861 8.68763 5.61334 8.68036C5.79831 8.68036 5.79831 8.7458 5.7414 8.89849C5.33587 9.9601 5.33587 9.9601 4.23313 9.9601C4.20467 9.94555 4.1691 9.94556 4.13353 9.94556ZM2.45452 17.3695C2.45452 17.3695 2.45452 17.3768 2.45452 17.3695C2.12725 17.3695 1.79287 17.3695 1.46561 17.3695C1.3162 17.3695 1.20949 17.355 1.23083 17.1586C1.25929 16.8969 1.27352 16.6278 1.28775 16.3661C1.29486 16.2279 1.32332 16.1334 1.48695 16.1334C2.16994 16.1334 2.85293 16.1334 3.54303 16.1334C3.63552 16.1334 3.70666 16.1625 3.71378 16.2716C3.72801 16.5988 3.69955 16.9187 3.64975 17.2459C3.6284 17.3768 3.52169 17.3622 3.4292 17.3622C3.0877 17.3768 2.76755 17.3695 2.45452 17.3695ZM4.12641 26.0441C4.43234 26.0441 4.73826 26.0514 5.04418 26.0441C5.19358 26.0441 5.27896 26.0877 5.33587 26.2404C5.4497 26.5168 5.57776 26.7931 5.72005 27.0548C5.82677 27.2511 5.80543 27.3166 5.56353 27.3239C5.14378 27.3311 4.71691 27.2293 4.29716 27.3166C3.73512 27.4329 3.40785 27.1784 3.22288 26.6549C3.18019 26.5458 3.12328 26.4368 3.06636 26.335C2.95253 26.1314 2.97387 26.0296 3.23711 26.0368C3.53591 26.0514 3.82761 26.0441 4.12641 26.0441ZM2.52566 19.849C2.44029 19.849 2.36203 19.8563 2.27666 19.849C1.96362 19.8272 1.57944 19.9726 1.35178 19.7836C1.15257 19.6236 1.3162 19.231 1.25217 18.9546C1.24506 18.9183 1.23794 18.8819 1.23083 18.8456C1.20949 18.7001 1.24506 18.6129 1.40869 18.6129C2.09168 18.6202 2.78178 18.6202 3.46477 18.6202C3.5786 18.6202 3.6284 18.6711 3.63552 18.7947C3.64975 19.071 3.6782 19.3473 3.69955 19.6236C3.71378 19.7981 3.64263 19.8636 3.479 19.8563C3.15885 19.8417 2.8387 19.849 2.52566 19.849ZM2.84581 13.6612C2.9383 13.6612 3.0379 13.6539 3.13039 13.6612C3.4292 13.6903 3.82049 13.523 4.01258 13.7412C4.17622 13.9302 3.92721 14.2865 3.9201 14.5701C3.9201 14.8537 3.77781 14.9046 3.53591 14.8973C3.0379 14.8827 2.53989 14.8973 2.04899 14.89C1.50118 14.8827 1.41581 15.0282 1.56521 14.3156C1.59367 14.1774 1.62924 14.032 1.64347 13.8866C1.66481 13.7048 1.7573 13.6466 1.92805 13.6466C2.23397 13.6684 2.53989 13.6612 2.84581 13.6612ZM2.68929 21.0924C3.02367 21.0924 3.36517 21.027 3.6782 21.1069C4.1193 21.2233 3.85607 21.7105 4.0197 21.9868C4.03393 22.0086 4.03393 22.0304 4.03393 22.0595C4.0695 22.234 4.02681 22.3285 3.82761 22.3285C3.18731 22.3212 2.55412 22.3212 1.91382 22.3285C1.76441 22.3285 1.66481 22.2849 1.63635 22.1176C1.59367 21.8704 1.54387 21.6232 1.49407 21.376C1.45849 21.1869 1.51541 21.0779 1.72884 21.0924C2.05611 21.0997 2.37626 21.0924 2.68929 21.0924ZM3.20154 23.5646C3.20154 23.5646 3.20154 23.5719 3.20154 23.5646C3.55726 23.5646 3.93432 23.4846 4.25448 23.5864C4.63866 23.71 4.50348 24.2118 4.67423 24.5099C4.81652 24.7571 4.68134 24.808 4.45368 24.8007C4.07661 24.7862 3.69955 24.7935 3.32248 24.8007C2.36203 24.8007 2.36203 24.808 2.09879 23.8627C2.09879 23.8482 2.09168 23.8409 2.08457 23.8264C2.01342 23.6373 2.07745 23.5573 2.26954 23.5646C2.58969 23.5719 2.89561 23.5646 3.20154 23.5646ZM3.55726 11.1889C3.89164 11.1889 4.2189 11.1889 4.55328 11.1889C4.62443 11.1889 4.7596 11.1599 4.72403 11.2907C4.63154 11.6398 4.51771 11.9815 4.40388 12.3233C4.37542 12.4032 4.29716 12.4105 4.22602 12.4105C3.56437 12.4105 2.90273 12.4105 2.23397 12.4105C2.09168 12.4105 2.02765 12.3378 2.07745 12.2069C2.1984 11.8797 2.21263 11.4871 2.4474 11.2398C2.61815 11.0581 2.94541 11.1962 3.20154 11.1817C3.32248 11.1817 3.43631 11.1889 3.55726 11.1889ZM4.41099 28.6036C5.09398 28.4145 5.75563 28.6036 6.40304 28.5309C6.45996 28.5236 6.54533 28.5745 6.5809 28.6254C6.82991 28.989 7.06469 29.3598 7.34926 29.7888C6.64493 29.7888 6.01175 29.7888 5.37856 29.7815C5.31453 29.7815 5.23627 29.7306 5.2007 29.687C4.91612 29.3525 4.64577 29.0108 4.41099 28.6036ZM7.35638 6.19359C7.08603 6.59351 6.86548 6.92071 6.65205 7.25519C6.55956 7.39334 6.43861 7.4297 6.28921 7.4297C5.74851 7.42243 5.2007 7.4297 4.66 7.42243C4.58885 7.42243 4.48214 7.46606 4.43945 7.36426C4.41099 7.29155 4.48925 7.23338 4.52482 7.18248C4.71691 6.92071 4.909 6.65895 5.1011 6.40445C5.17224 6.30993 5.24338 6.20086 5.37856 6.20086C6.01886 6.19359 6.65205 6.19359 7.35638 6.19359ZM6.4813 31.0395C7.09314 31.0395 7.64807 31.0395 8.203 31.0395C8.28837 31.0395 8.36663 31.0467 8.43066 31.1122C8.78638 31.4757 9.14211 31.8393 9.51206 32.2247C8.18166 32.4501 7.40618 32.152 6.4813 31.0395ZM6.50976 4.9502C7.29235 3.92495 8.23857 3.45232 9.49072 3.77953C9.14211 4.13582 8.80061 4.49211 8.45201 4.85568C8.38797 4.92112 8.31683 4.9502 8.23146 4.9502C7.6623 4.9502 7.10026 4.9502 6.50976 4.9502ZM12.5855 34.4279C11.7247 34.2316 10.8851 33.9771 10.0812 33.5699C11.1413 33.2209 11.8029 34.0134 12.5855 34.4279ZM12.4005 1.63451C11.6962 2.08533 11.063 2.74701 10.0812 2.40526C10.8282 2.04897 11.5895 1.76539 12.4005 1.63451Z" fill="#FFC32E"/>
<path d="M4.88034 17.4365C4.83766 19.1598 4.99418 20.8613 5.39259 22.5409C6.01866 25.1804 7.12851 27.5799 8.82887 29.674C11.0913 32.4444 13.9157 34.2258 17.4587 34.6621C20.3828 35.0257 23.0862 34.3058 25.5407 32.6625C28.6284 30.5975 30.6133 27.6672 31.8015 24.1406C32.5414 21.9302 32.8757 19.647 32.7761 17.3202C32.5912 13.0374 31.2821 9.17636 28.4861 5.92611C26.2806 3.35936 23.5345 1.73787 20.1835 1.32341C17.5227 0.996201 15.0185 1.57063 12.7063 2.9449C9.5332 4.82815 7.43444 7.64213 6.11115 11.096C5.32856 13.1392 4.93726 15.2551 4.88034 17.4365ZM19.4863 4.37006C19.8776 4.42823 20.2689 4.47913 20.6602 4.53003C20.895 4.08648 21.0942 3.99923 21.5495 4.13011C21.8626 4.22464 22.1827 4.33371 22.4886 4.45732C22.9653 4.65364 23.0791 4.87178 22.9795 5.38077C23.3424 5.53346 23.6625 5.75887 23.9898 5.96974C24.3811 5.64253 24.6159 5.62799 25.0214 5.94793C25.2704 6.14425 25.5194 6.35512 25.7542 6.57325C26.1099 6.90773 26.1312 7.11133 25.8965 7.55487C26.1668 7.85299 26.3731 8.20929 26.7004 8.44924C27.1557 8.28927 27.3478 8.34744 27.611 8.74009C27.796 9.0164 27.981 9.29997 28.1589 9.59083C28.4007 9.99802 28.3723 10.2016 28.0379 10.5506C28.0664 10.7833 28.2158 10.9578 28.3011 11.1687C28.3723 11.3505 28.3794 11.5759 28.6142 11.6413C28.9984 11.605 29.2403 11.794 29.3612 12.1576C29.4679 12.4848 29.5818 12.8193 29.6814 13.1537C29.8165 13.6046 29.7312 13.7936 29.3185 14.0408C29.3114 14.3171 29.4395 14.5789 29.4466 14.8479C29.4537 15.0806 29.5462 15.197 29.7454 15.2624C30.0655 15.3424 30.2078 15.5678 30.2363 15.8877C30.2647 16.1859 30.2932 16.484 30.3145 16.7821C30.3501 17.4583 30.3217 17.502 29.7454 17.7492C29.7738 18.1564 29.66 18.5781 29.8165 18.978C30.2149 19.1525 30.3359 19.3707 30.2861 19.7851C30.2434 20.0905 30.2007 20.4032 30.1651 20.7086C30.1011 21.2321 29.9161 21.4066 29.3897 21.443C29.2972 21.8284 29.2047 22.2137 29.1122 22.6064C29.5391 22.8681 29.6244 23.1008 29.4608 23.5662C29.3612 23.8498 29.2545 24.1333 29.1407 24.4097C28.9272 24.9405 28.7351 25.0422 28.1802 24.9405C28.0806 25.3331 27.8316 25.6458 27.6822 26.0166C28.0237 26.3874 28.0521 26.5838 27.7747 27.0055C27.5968 27.2745 27.4047 27.5363 27.2126 27.7981C26.9138 28.198 26.7289 28.2489 26.2664 28.0598C25.9747 28.3289 25.683 28.5979 25.3913 28.8669C25.6403 29.3614 25.5977 29.5722 25.1637 29.9213C24.9289 30.1103 24.6941 30.2848 24.4451 30.4521C23.9898 30.7647 23.819 30.7502 23.4135 30.3794C23.1716 30.503 22.9368 30.6193 22.695 30.7429C22.5598 30.8084 22.4104 30.8593 22.3961 31.0556C22.389 31.4482 22.1827 31.6736 21.8199 31.7754C21.514 31.8554 21.208 31.9572 20.9021 32.0299C20.4183 32.1463 20.1907 32.0299 19.9843 31.55C19.6002 31.5646 19.216 31.6591 18.8318 31.6155C18.7464 31.9718 18.5615 32.2553 18.1702 32.2335C17.7646 32.219 17.352 32.1754 16.9536 32.0663C16.5125 31.9499 16.3631 31.7391 16.3987 31.2592C16.0287 31.1356 15.6588 31.012 15.2888 30.8883C14.9402 31.3028 14.741 31.3537 14.2785 31.1065C13.9726 30.9465 13.6809 30.7647 13.3892 30.5757C13.0762 30.3794 12.9624 30.103 13.0975 29.7395C12.8699 29.3686 12.5711 29.0851 12.1656 28.9324C11.7458 29.136 11.5822 29.1142 11.262 28.7651C11.0415 28.5325 10.8351 28.2852 10.6288 28.038C10.2873 27.6308 10.2873 27.4127 10.6075 26.9909C10.3798 26.6637 10.1593 26.3365 9.93161 26.0021C9.39803 26.082 9.26997 26.0166 9.02807 25.544C8.88579 25.2677 8.75773 24.9841 8.63678 24.7005C8.43757 24.2351 8.5016 24.017 8.90001 23.7189C8.77907 23.3408 8.65101 22.9699 8.53006 22.5918C8.16011 22.6209 7.87553 22.4828 7.77593 22.0974C7.67633 21.7193 7.59807 21.3266 7.54115 20.934C7.47712 20.4541 7.59095 20.2941 8.03205 20.1196C7.98225 19.7124 7.93956 19.3125 7.88976 18.9053C7.43444 18.789 7.2708 18.5926 7.2708 18.12C7.2708 17.851 7.3206 17.5892 7.29926 17.3202C7.25657 16.7966 7.47001 16.4694 7.96802 16.3531C7.93956 15.9532 8.12454 15.5823 8.09608 15.1897C7.6621 14.9861 7.55538 14.7825 7.6621 14.3099C7.72613 14.019 7.79727 13.7282 7.87553 13.4373C8.03205 12.8484 8.14588 12.7611 8.73638 12.7684C8.7933 12.3684 9.04942 12.0267 9.0921 11.6195C8.75773 11.3068 8.70081 11.0742 8.90001 10.667C9.0423 10.3761 9.19171 10.0925 9.34822 9.80896C9.60435 9.3436 9.80355 9.27089 10.3016 9.42359C10.4794 9.06002 10.8209 8.79826 10.949 8.40561C10.7071 8.01296 10.7284 7.75847 11.0272 7.43126C11.2549 7.18404 11.4826 6.94409 11.7245 6.70414C12.0446 6.39147 12.2438 6.37693 12.6422 6.59507C12.7774 6.58053 12.877 6.50781 12.9837 6.4351C13.1971 6.27513 13.3821 6.07881 13.6454 5.99155C13.5031 5.39531 13.5742 5.22807 14.1007 4.93722C14.3568 4.79907 14.6272 4.66818 14.8975 4.54457C15.3386 4.34098 15.5378 4.39188 15.8366 4.78452C16.235 4.78452 16.5836 4.53003 16.9892 4.55185C17.0247 4.05013 17.1741 3.83199 17.5654 3.78109C17.971 3.73019 18.3836 3.67202 18.7962 3.69384C19.095 3.70838 19.3156 3.82472 19.4223 4.12284C19.5006 4.20283 19.4934 4.28281 19.4863 4.37006Z" fill="#FFE29A"/>
<path d="M4.13358 9.94714C4.16915 9.94714 4.20472 9.94714 4.24029 9.94714C5.34304 9.94714 5.33592 9.94714 5.74856 8.88554C5.80548 8.73285 5.80548 8.66741 5.6205 8.66741C5.01577 8.67468 4.41104 8.67468 3.80631 8.66741C3.64268 8.66741 3.53596 8.74012 3.46482 8.87827C3.32253 9.15458 3.18735 9.43816 3.04507 9.71446C2.96681 9.87443 3.00949 9.93987 3.18024 9.9326C3.49328 9.93987 3.81343 9.94714 4.13358 9.94714Z" fill="#FFF6CF"/>
<path d="M2.45478 17.3711C2.77493 17.3711 3.09508 17.3711 3.40812 17.3711C3.50061 17.3711 3.60732 17.3856 3.62867 17.2547C3.68558 16.9348 3.70693 16.6076 3.6927 16.2804C3.68558 16.1713 3.62155 16.1422 3.52195 16.1422C2.83896 16.1422 2.15597 16.1422 1.46587 16.1422C1.30224 16.1422 1.27378 16.2368 1.26667 16.3749C1.25244 16.6367 1.23821 16.9057 1.20975 17.1675C1.18841 17.3638 1.29512 17.3856 1.44453 17.3784C1.79314 17.3711 2.1204 17.3784 2.45478 17.3711C2.45478 17.3784 2.45478 17.3711 2.45478 17.3711Z" fill="#FFF6CF"/>
<path d="M4.12668 26.0458C3.83498 26.0458 3.53617 26.053 3.24448 26.0458C2.98125 26.0312 2.9599 26.1403 3.07373 26.3439C3.13065 26.4457 3.19468 26.5547 3.23025 26.6638C3.41523 27.1873 3.74249 27.4418 4.30454 27.3255C4.72429 27.2382 5.15116 27.34 5.57091 27.3328C5.80569 27.3255 5.82703 27.2601 5.72743 27.0637C5.58514 26.802 5.45708 26.5257 5.34325 26.2494C5.28633 26.1039 5.19385 26.053 5.05156 26.053C4.73852 26.053 4.4326 26.0458 4.12668 26.0458Z" fill="#FFF6CF"/>
<path d="M2.52602 19.8505C2.84617 19.8505 3.16632 19.8432 3.47936 19.8505C3.6501 19.8578 3.71413 19.7851 3.6999 19.6178C3.67145 19.3415 3.6501 19.0652 3.63587 18.7889C3.62876 18.6725 3.57896 18.6144 3.46513 18.6144C2.78214 18.6144 2.09204 18.6144 1.40905 18.6071C1.24542 18.6071 1.20984 18.6944 1.23119 18.8398C1.2383 18.8761 1.24542 18.9125 1.25253 18.9489C1.31656 19.2324 1.15293 19.6178 1.35213 19.7778C1.58691 19.9668 1.96398 19.8214 2.27701 19.8432C2.35527 19.8578 2.44065 19.8505 2.52602 19.8505Z" fill="#FFF6CF"/>
<path d="M2.84616 13.6627C2.54024 13.6627 2.23432 13.67 1.92128 13.6627C1.75054 13.6555 1.65805 13.7209 1.6367 13.9027C1.62248 14.0481 1.5869 14.1863 1.55845 14.3317C1.40904 15.0443 1.49442 14.8989 2.04223 14.9061C2.54024 14.9134 3.03825 14.8989 3.52915 14.9134C3.77104 14.9207 3.91333 14.8698 3.91333 14.5862C3.91333 14.3026 4.16234 13.9463 4.00582 13.7573C3.82084 13.5391 3.42955 13.7064 3.12363 13.6773C3.03825 13.6555 2.93865 13.6627 2.84616 13.6627Z" fill="#FFF6CF"/>
<path d="M2.68945 21.094C2.3693 21.094 2.04915 21.1012 1.729 21.094C1.51556 21.0867 1.45865 21.1885 1.49422 21.3775C1.53691 21.6248 1.59382 21.872 1.63651 22.1192C1.66497 22.2865 1.76457 22.3301 1.91397 22.3301C2.55428 22.3228 3.18746 22.3228 3.82776 22.3301C4.02697 22.3301 4.07677 22.2356 4.03408 22.061C4.02697 22.0392 4.02697 22.0101 4.01985 21.9883C3.85622 21.712 4.11946 21.2176 3.67836 21.1085C3.37244 21.0285 3.02383 21.094 2.68945 21.094Z" fill="#FFF6CF"/>
<path d="M3.20158 23.5662C2.89566 23.5662 2.58974 23.5735 2.28381 23.5662C2.08461 23.559 2.02058 23.6389 2.09884 23.828C2.10595 23.8425 2.10595 23.8498 2.11307 23.8643C2.36919 24.8096 2.36919 24.8096 3.33676 24.8023C3.71382 24.8023 4.09089 24.7951 4.46796 24.8023C4.69562 24.8096 4.83079 24.7587 4.6885 24.5115C4.51064 24.2134 4.65293 23.7117 4.26875 23.588C3.93437 23.4862 3.5573 23.5735 3.20158 23.5662C3.20158 23.5735 3.20158 23.5662 3.20158 23.5662Z" fill="#FFF6CF"/>
<path d="M3.55725 11.1906C3.4363 11.1906 3.32247 11.1833 3.20153 11.1906C2.9454 11.2051 2.61814 11.067 2.44739 11.2488C2.21261 11.496 2.19839 11.8886 2.07744 12.2158C2.02764 12.3467 2.09878 12.4194 2.23396 12.4194C2.8956 12.4194 3.55725 12.4194 4.22601 12.4194C4.29715 12.4194 4.38253 12.4122 4.40387 12.3322C4.5177 11.9904 4.63153 11.6487 4.72402 11.2997C4.75959 11.1615 4.62442 11.1979 4.55327 11.1979C4.21889 11.1906 3.88451 11.1906 3.55725 11.1906Z" fill="#FFF6CF"/>
<path d="M4.41113 28.6052C4.64591 29.0051 4.92337 29.3541 5.20084 29.6886C5.24353 29.7395 5.32178 29.7831 5.3787 29.7831C6.01189 29.7904 6.64508 29.7904 7.34941 29.7904C7.06483 29.3614 6.83005 28.9906 6.58104 28.627C6.54547 28.5761 6.4601 28.5252 6.40318 28.5325C5.74865 28.6052 5.08701 28.4161 4.41113 28.6052Z" fill="#FFF6CF"/>
<path d="M7.35678 6.19515C6.65244 6.19515 6.01926 6.19515 5.38607 6.19515C5.2509 6.19515 5.17975 6.30422 5.10861 6.39875C4.91652 6.65325 4.72443 6.91501 4.53234 7.17678C4.48965 7.23495 4.41851 7.28585 4.44696 7.35856C4.48254 7.46036 4.58925 7.41673 4.66751 7.41673C5.20821 7.424 5.75602 7.41673 6.29672 7.424C6.44613 7.424 6.56707 7.39492 6.65956 7.24949C6.86588 6.92228 7.08643 6.60235 7.35678 6.19515Z" fill="#FFF6CF"/>
<path d="M6.48145 31.0411C7.40633 32.1536 8.18892 32.4517 9.51221 32.2263C9.14226 31.8409 8.78653 31.4773 8.43081 31.1138C8.36678 31.0483 8.28852 31.0411 8.20315 31.0411C7.64822 31.0411 7.09329 31.0411 6.48145 31.0411Z" fill="#FFF6CF"/>
<path d="M6.50977 4.95178C7.10027 4.95178 7.66231 4.95178 8.22435 4.95178C8.30972 4.95178 8.38798 4.9227 8.4449 4.85726C8.79351 4.50097 9.14212 4.1374 9.48361 3.78111C8.23858 3.45391 7.28524 3.92654 6.50977 4.95178Z" fill="#FFF6CF"/>
<path d="M12.5858 34.4294C11.8032 34.0077 11.1416 33.2224 10.0815 33.5714C10.8784 33.9859 11.7179 34.2404 12.5858 34.4294Z" fill="#FFF6CF"/>
<path d="M12.4009 1.63601C11.5898 1.76689 10.8357 2.05773 10.0815 2.40675C11.0633 2.7485 11.6965 2.08682 12.4009 1.63601Z" fill="#FFF6CF"/>
<path d="M7.89014 18.9198C7.93994 19.327 7.98262 19.7269 8.03243 20.1341C8.49487 20.1704 8.66561 20.3304 8.75099 20.803C8.80079 21.0866 8.8577 21.3629 8.92173 21.6465C9.02845 22.17 8.97153 22.3227 8.53755 22.599C8.6585 22.9771 8.78656 23.348 8.9075 23.7261C9.44109 23.6679 9.55492 23.7406 9.77547 24.2496C9.88218 24.5041 10.0102 24.7513 10.1312 24.9986C10.3589 25.4639 10.3233 25.6602 9.9391 26.0093C10.1668 26.3365 10.3873 26.6637 10.615 26.9982C11.0845 26.8164 11.2624 26.8673 11.5683 27.2454C11.7462 27.4708 11.9383 27.6889 12.1304 27.8998C12.4861 28.2852 12.4932 28.5178 12.173 28.9396C12.5786 29.0995 12.8774 29.3759 13.105 29.7467C13.4181 29.3395 13.6457 29.2886 14.0726 29.5431C14.3145 29.6885 14.5493 29.863 14.8054 29.9794C15.218 30.1611 15.3745 30.4593 15.2963 30.8955C15.6662 31.0192 16.0362 31.1428 16.4061 31.2664C16.6551 30.8446 16.8188 30.7719 17.2741 30.8592C17.516 30.9028 17.7579 30.9537 18.0069 30.9683C18.5476 31.0046 18.6828 31.1064 18.8393 31.6154C19.2306 31.6663 19.6076 31.5718 19.9918 31.55C20.0345 31.0919 20.1697 30.9246 20.5894 30.8156C20.874 30.7428 21.1586 30.6701 21.4432 30.5829C21.9768 30.4229 22.1902 30.5247 22.4036 31.0482C22.4179 30.8592 22.5673 30.8083 22.7024 30.7356C22.9443 30.612 23.1791 30.4956 23.421 30.372C23.2787 29.8776 23.3356 29.7176 23.7412 29.4268C23.9759 29.2595 24.2107 29.1068 24.4241 28.9105C24.7443 28.6196 25.0573 28.6342 25.3917 28.8523C25.6834 28.5833 25.9751 28.3142 26.2668 28.0452C25.9466 27.6526 25.9466 27.4053 26.2597 26.9982C26.4446 26.7655 26.6083 26.511 26.779 26.271C27.0423 25.9002 27.2557 25.8348 27.6826 26.002C27.832 25.6384 28.081 25.3185 28.1806 24.9258C27.8533 24.6277 27.8248 24.2787 28.0169 23.8861C28.1308 23.6534 28.209 23.3916 28.3015 23.1517C28.4936 22.6499 28.5719 22.5918 29.1126 22.5845C29.2051 22.1991 29.2975 21.8137 29.39 21.4211C28.9347 21.1739 28.8707 21.0212 28.9489 20.4904C28.9916 20.2141 29.013 19.945 29.0414 19.6687C29.0912 19.1452 29.2975 18.9561 29.8169 18.9489C29.6604 18.5489 29.7813 18.1272 29.7458 17.72C29.39 17.6764 29.1553 17.4801 29.1126 17.1092C29.0699 16.7529 29.0485 16.3967 29.0343 16.0331C29.0058 15.4369 29.1624 15.2623 29.7458 15.226C29.5537 15.1605 29.4541 15.0442 29.4469 14.8115C29.4398 14.5425 29.3118 14.288 29.3189 14.0044C28.7497 14.0117 28.6644 13.9462 28.4865 13.3864C28.4011 13.1246 28.3229 12.8556 28.2304 12.5938C28.0525 12.0557 28.1237 11.8594 28.6146 11.6122C28.3798 11.5467 28.3727 11.3213 28.3015 11.1395C28.2161 10.9359 28.0739 10.7542 28.0383 10.5215C27.6043 10.696 27.3624 10.616 27.1134 10.2234C26.9498 9.9616 26.7861 9.69256 26.6154 9.43079C26.3308 8.99452 26.345 8.79092 26.7008 8.42009C26.3664 8.18014 26.1601 7.82384 25.8968 7.52572C25.47 7.82384 25.3206 7.8093 24.9293 7.46028C24.7087 7.26396 24.4739 7.07491 24.2463 6.88585C23.8834 6.58773 23.8336 6.39868 23.9902 5.94059C23.6629 5.72245 23.3427 5.50431 22.9799 5.35162C22.6455 5.73699 22.4961 5.77335 22.0266 5.59157C21.742 5.4825 21.4503 5.3807 21.1657 5.27891C20.7673 5.14075 20.6321 4.93716 20.6606 4.49361C20.2693 4.44271 19.878 4.39181 19.4796 4.33364C19.3729 4.71175 19.1666 4.92989 18.7539 4.92261C18.448 4.91534 18.1421 4.92988 17.8433 4.98805C17.4235 5.07531 17.1674 4.9008 16.9966 4.52997C16.5911 4.51542 16.2425 4.76992 15.8441 4.76265C15.9508 5.25709 15.837 5.46796 15.3817 5.67155C15.154 5.77335 14.9121 5.86061 14.7129 5.99876C14.3358 6.2678 13.9943 6.25325 13.6528 5.9624C13.3896 6.04966 13.2046 6.24598 12.9912 6.40595C12.8845 6.48593 12.7849 6.55865 12.6497 6.56592C12.9556 6.98765 12.9343 7.19125 12.5786 7.56935C12.3651 7.79476 12.1517 8.0129 11.9525 8.25285C11.6537 8.5946 11.3549 8.63823 10.9565 8.37646C10.8284 8.77638 10.4869 9.03087 10.3091 9.39444C10.6434 9.77254 10.6648 9.93251 10.4442 10.3542C10.2877 10.6524 10.1312 10.9432 9.97467 11.2413C9.76835 11.634 9.52646 11.7212 9.09959 11.5831C9.05691 11.9903 8.80079 12.332 8.74387 12.7319C9.17785 13.0664 9.20631 13.1682 9.06402 13.7063C8.99999 13.9608 8.93596 14.2153 8.88616 14.477C8.77944 15.0006 8.61581 15.1387 8.10357 15.1533C8.12491 15.5459 7.93994 15.9168 7.97551 16.3167C8.41661 16.4766 8.58024 16.8038 8.53755 17.2765C8.50909 17.5601 8.53755 17.8582 8.53044 18.1418C8.51621 18.6217 8.317 18.8471 7.89014 18.9198Z" fill="#FFF6CF"/>
<path d="M16.9966 4.57349C17.1673 4.94433 17.4235 5.11884 17.8432 5.03158C18.142 4.97341 18.4479 4.95887 18.7539 4.96614C19.1665 4.97341 19.3799 4.748 19.4795 4.37717C19.4084 4.319 19.4155 4.23174 19.4226 4.15176C19.3159 3.85364 19.0953 3.7373 18.7965 3.72275C18.3839 3.70094 17.9713 3.75911 17.5657 3.81001C17.1816 3.85364 17.0322 4.07177 16.9966 4.57349Z" fill="#FFC32E"/>
<path d="M7.88995 18.9198C8.31682 18.8471 8.51603 18.6217 8.52314 18.1927C8.53026 17.9018 8.5018 17.611 8.53026 17.3274C8.58006 16.8548 8.41643 16.5348 7.96821 16.3676C7.46309 16.4912 7.25677 16.8111 7.29945 17.3347C7.3208 17.5964 7.271 17.8655 7.271 18.1345C7.271 18.6071 7.43463 18.8035 7.88995 18.9198Z" fill="#FFC32E"/>
<path d="M29.8094 18.9706C29.2901 18.9779 29.0909 19.167 29.034 19.6905C29.0055 19.9668 28.9842 20.2431 28.9415 20.5122C28.8632 21.043 28.9272 21.1884 29.3826 21.4429C29.909 21.4065 30.0869 21.232 30.158 20.7085C30.1936 20.4031 30.2434 20.0904 30.279 19.785C30.3288 19.3633 30.2078 19.1452 29.8094 18.9706Z" fill="#FFC32E"/>
<path d="M13.6524 6.01325C14.001 6.3041 14.3425 6.31864 14.7125 6.04961C14.9117 5.90418 15.1536 5.8242 15.3812 5.7224C15.8366 5.51881 15.9433 5.30067 15.8437 4.8135C15.5449 4.42085 15.3457 4.36995 14.9046 4.57355C14.6342 4.69716 14.371 4.82804 14.1078 4.9662C13.5813 5.24977 13.5101 5.41701 13.6524 6.01325Z" fill="#FFC32E"/>
<path d="M20.6604 4.52265C20.6319 4.95893 20.7671 5.16253 21.1655 5.30795C21.4501 5.40975 21.7418 5.50428 22.0264 5.62062C22.4959 5.8024 22.6453 5.76605 22.9797 5.38067C23.0793 4.87167 22.9655 4.65354 22.4888 4.45721C22.1829 4.3336 21.8698 4.22453 21.5497 4.13C21.0873 3.99185 20.8952 4.08637 20.6604 4.52265Z" fill="#FFC32E"/>
<path d="M28.6073 11.6413C28.1164 11.8885 28.0382 12.0848 28.2232 12.6229C28.3085 12.8847 28.3939 13.1537 28.4793 13.4155C28.6571 13.9754 28.7496 14.0481 29.3117 14.0335C29.7243 13.7863 29.8097 13.5972 29.6745 13.1464C29.5749 12.812 29.4682 12.4847 29.3544 12.1503C29.2405 11.794 28.9986 11.6049 28.6073 11.6413Z" fill="#FFC32E"/>
<path d="M26.7008 8.44915C26.345 8.82725 26.3308 9.02358 26.6154 9.45985C26.7861 9.72161 26.9498 9.98338 27.1134 10.2524C27.3553 10.6451 27.5972 10.725 28.0383 10.5505C28.3727 10.2015 28.4011 9.99792 28.1592 9.59073C27.9885 9.29988 27.8035 9.02358 27.6114 8.74C27.3482 8.35463 27.1561 8.29646 26.7008 8.44915Z" fill="#FFC32E"/>
<path d="M22.3962 31.0627C22.1827 30.5392 21.9693 30.4374 21.4357 30.5974C21.1511 30.6846 20.8666 30.7573 20.582 30.83C20.1622 30.9391 20.0271 31.1063 19.9844 31.5644C20.1978 32.0371 20.4184 32.1607 20.9021 32.0443C21.2081 31.9644 21.514 31.8698 21.8199 31.7898C22.1827 31.688 22.3891 31.4626 22.3962 31.0627Z" fill="#FFC32E"/>
<path d="M9.09955 11.634C9.52642 11.7722 9.76831 11.6776 9.97463 11.2923C10.1311 11.0014 10.2877 10.7033 10.4442 10.4052C10.6647 9.98345 10.6434 9.82348 10.309 9.44538C9.811 9.28541 9.61179 9.3654 9.35567 9.83075C9.19915 10.1143 9.04975 10.3979 8.90746 10.6888C8.70825 11.0887 8.76517 11.3214 9.09955 11.634Z" fill="#FFC32E"/>
<path d="M18.8317 31.6227C18.6752 31.1064 18.5401 31.0046 17.9994 30.9755C17.7575 30.961 17.5085 30.9174 17.2666 30.8665C16.8112 30.7792 16.6405 30.8519 16.3986 31.2737C16.363 31.7536 16.5124 31.9644 16.9535 32.0808C17.3519 32.1826 17.7646 32.2262 18.1701 32.248C18.5614 32.2625 18.7393 31.979 18.8317 31.6227Z" fill="#FFC32E"/>
<path d="M15.2888 30.9027C15.36 30.4592 15.2106 30.1683 14.7979 29.9866C14.5418 29.8702 14.3142 29.6957 14.0651 29.5503C13.6383 29.2958 13.4106 29.3467 13.0976 29.7539C12.9624 30.1174 13.0762 30.3938 13.3893 30.5901C13.681 30.7719 13.9727 30.9536 14.2786 31.1209C14.741 31.3681 14.9402 31.3172 15.2888 30.9027Z" fill="#FFC32E"/>
<path d="M25.3847 28.8741C25.0504 28.656 24.7373 28.6414 24.4172 28.9323C24.2037 29.1213 23.9618 29.2813 23.7342 29.4485C23.3215 29.7466 23.2646 29.8993 23.414 30.3938C23.8196 30.7646 23.9903 30.7792 24.4456 30.4665C24.6875 30.2993 24.9294 30.1175 25.1642 29.9357C25.5911 29.5794 25.6337 29.3685 25.3847 28.8741Z" fill="#FFC32E"/>
<path d="M9.93166 26.0165C10.3158 25.6602 10.3443 25.4712 10.1237 25.0058C10.0028 24.7586 9.87474 24.5114 9.76802 24.2569C9.54748 23.7479 9.43364 23.6752 8.90006 23.7333C8.50165 24.0314 8.43762 24.2496 8.63682 24.7149C8.75777 24.9985 8.89294 25.2821 9.02812 25.5584C9.27001 26.031 9.40519 26.0892 9.93166 26.0165Z" fill="#FFC32E"/>
<path d="M29.0981 22.599C28.5574 22.6063 28.4791 22.6572 28.2871 23.1662C28.1946 23.4134 28.1163 23.6679 28.0025 23.9006C27.8104 24.2932 27.8388 24.6422 28.1661 24.9404C28.7139 25.0422 28.9131 24.9404 29.1266 24.4096C29.2404 24.1332 29.34 23.8497 29.4467 23.5661C29.6175 23.1007 29.525 22.8608 29.0981 22.599Z" fill="#FFC32E"/>
<path d="M12.1657 28.9396C12.4858 28.5179 12.4716 28.2852 12.123 27.8998C11.9309 27.6889 11.7459 27.4708 11.561 27.2454C11.255 26.86 11.0772 26.8091 10.6076 26.9982C10.2875 27.4199 10.2875 27.638 10.629 28.0452C10.8353 28.2925 11.0416 28.5397 11.2622 28.7724C11.5823 29.1214 11.7459 29.1432 12.1657 28.9396Z" fill="#FFC32E"/>
<path d="M29.7385 15.255C29.1551 15.2841 28.9915 15.4586 29.0271 16.0621C29.0484 16.4184 29.0627 16.7819 29.1053 17.1382C29.148 17.5091 29.3828 17.7054 29.7385 17.749C30.3148 17.5018 30.3433 17.4582 30.3077 16.782C30.2935 16.4838 30.2579 16.1857 30.2294 15.8876C30.201 15.5604 30.0587 15.335 29.7385 15.255Z" fill="#FFC32E"/>
<path d="M8.53011 22.599C8.96409 22.3227 9.02812 22.1628 8.91429 21.6465C8.85737 21.3629 8.80046 21.0866 8.74354 20.803C8.65817 20.3231 8.49453 20.1704 8.02498 20.1341C7.58388 20.3086 7.47005 20.4758 7.53408 20.9485C7.591 21.3411 7.66926 21.7265 7.76886 22.1119C7.87558 22.49 8.16015 22.6281 8.53011 22.599Z" fill="#FFC32E"/>
<path d="M27.6751 26.0165C27.2482 25.8493 27.0348 25.9147 26.7715 26.2856C26.6008 26.5255 26.4372 26.78 26.2522 27.0127C25.9391 27.4199 25.932 27.6671 26.2593 28.0598C26.7217 28.2415 26.9067 28.1979 27.2055 27.798C27.3976 27.5362 27.5897 27.2745 27.7676 27.0054C28.045 26.5837 28.0237 26.3874 27.6751 26.0165Z" fill="#FFC32E"/>
<path d="M10.9564 8.42734C11.3477 8.6891 11.6536 8.64548 11.9524 8.30372C12.1516 8.07104 12.365 7.84563 12.5785 7.62022C12.9342 7.24212 12.9555 7.04579 12.6496 6.61678C12.2441 6.39137 12.052 6.41319 11.7318 6.72585C11.49 6.95853 11.2623 7.20576 11.0346 7.45298C10.7358 7.78019 10.7145 8.02741 10.9564 8.42734Z" fill="#FFC32E"/>
<path d="M23.9899 5.96961C23.8263 6.4277 23.8832 6.61675 24.2461 6.91487C24.4737 7.10392 24.7085 7.29297 24.929 7.4893C25.3132 7.83832 25.4697 7.85286 25.8966 7.55474C26.1314 7.11119 26.1029 6.90033 25.7543 6.57312C25.5196 6.35498 25.2777 6.14412 25.0215 5.94779C24.616 5.62786 24.3741 5.6424 23.9899 5.96961Z" fill="#FFC32E"/>
<path d="M8.10324 15.2041C8.61548 15.1896 8.77911 15.0441 8.88583 14.5279C8.93563 14.2734 8.99255 14.0116 9.06369 13.7571C9.20598 13.2191 9.17752 13.1173 8.74354 12.7828C8.15304 12.7755 8.03921 12.8628 7.88269 13.4517C7.80443 13.7426 7.73329 14.0334 7.66926 14.3243C7.56254 14.7969 7.66926 15.0078 8.10324 15.2041Z" fill="#FFC32E"/>
<path d="M19.4225 4.14458C19.4225 4.22457 19.4083 4.30455 19.4795 4.37C19.4937 4.28274 19.5008 4.20275 19.4225 4.14458Z" fill="#C2E3F7"/>
</g>
<defs>
<clipPath id="clip0">
<rect width="34" height="36" fill="white" transform="matrix(1 0 0 -1 0 36)"/>
</clipPath>
</defs>
</svg>
