<svg width="28" height="28" viewBox="0 0 28 28" fill="none" xmlns="http://www.w3.org/2000/svg">
<path opacity="0.49" fill-rule="evenodd" clip-rule="evenodd" d="M11.312 0.698359C13.524 0.719283 15.6803 1.39442 17.5092 2.63867C19.3382 3.88291 20.7579 5.64057 21.5897 7.6903C22.4214 9.74003 22.6279 11.9901 22.1832 14.157C21.7384 16.3239 20.6623 18.3107 19.0903 19.8671C17.5184 21.4234 15.521 22.4796 13.3498 22.9028C11.1786 23.326 8.9307 23.0972 6.88934 22.2451C4.84799 21.393 3.10453 19.9557 1.87854 18.1145C0.652554 16.2733 -0.00108408 14.1104 1.34965e-06 11.8983C0.0161396 8.91343 1.2167 6.05716 3.33783 3.95703C5.45896 1.8569 8.32712 0.684797 11.312 0.698359ZM11.297 4.1383C12.8323 4.15389 14.3286 4.62349 15.5976 5.48779C16.8666 6.35209 17.8515 7.57244 18.4282 8.99536C19.005 10.4183 19.1478 11.9801 18.8387 13.484C18.5297 14.9879 17.7825 16.3669 16.6914 17.447C15.6003 18.5272 14.2139 19.2603 12.707 19.5542C11.2 19.848 9.63979 19.6894 8.22278 19.0983C6.80577 18.5072 5.59533 17.5101 4.7439 16.2324C3.89246 14.9548 3.43807 13.4537 3.43799 11.9183C3.44297 10.8911 3.65035 9.87498 4.04822 8.92797C4.44609 7.98096 5.02664 7.12169 5.75678 6.39916C6.48691 5.67664 7.35228 5.10508 8.30341 4.71716C9.25454 4.32924 10.2728 4.13251 11.3 4.1383H11.297ZM18.676 17.0183L27.007 25.2883L24.575 27.6984L16.243 19.4383L18.676 17.0183Z" fill="#BFBEB4"/>
</svg>
